<svg width="29" height="23" viewBox="0 0 29 23" fill="none" xmlns="http://www.w3.org/2000/svg">
<path d="M27.0946 4.84C25.8482 2.20053 23.3058 0.374101 20.44 0.158135C19.0359 0.0271875 17.5869 0.26563 16.3211 0.905709C15.471 1.32885 14.7144 1.91616 14.0785 2.61585C12.7669 1.12265 10.9129 0.146408 8.91279 0.0447772C4.70815 -0.208323 1.08385 2.52301 0.200664 6.76415C-0.335871 9.30395 0.249352 11.9561 1.41103 14.1901C2.57077 16.3937 4.26314 18.353 6.46479 19.5042C8.00136 20.2547 9.44154 18.3511 8.31783 17.0201C7.95949 16.6175 7.62939 16.1894 7.3285 15.7321C7.04904 15.308 6.79781 14.8624 6.56995 14.406C5.93702 13.1044 5.46475 11.6385 5.37127 10.1952C5.31577 9.27756 5.43554 8.48699 5.8153 7.6886C6.17461 6.94396 6.75691 6.30388 7.52131 6.00289C8.71025 5.55044 9.95081 5.79377 10.8544 6.77099C11.4416 7.37784 11.7104 8.22705 12.0103 9.01078C12.0327 9.06746 12.057 9.12218 12.0823 9.17593C12.6793 11.0239 15.4155 11.0708 15.9267 8.96876C15.9423 8.89742 15.9579 8.82511 15.9744 8.75182C15.9773 8.74009 15.9803 8.72934 15.9832 8.71761C15.9861 8.70589 15.9881 8.69416 15.991 8.68146C16.0348 8.49383 16.0854 8.3062 16.1507 8.13128C16.3542 7.56742 16.693 7.02311 17.1001 6.60779C17.7135 5.98139 18.4955 5.60321 19.3514 5.68725C19.8305 5.71461 20.3709 5.84556 20.7604 6.05762C22.9455 7.2469 22.7176 10.372 21.7809 12.4311C21.1226 13.8734 20.069 15.0803 18.9005 16.123C18.6113 16.38 18.2812 16.6634 17.9823 16.9028C16.6122 17.9709 16.2617 19.9928 17.3445 21.442C18.5062 23.0349 20.8198 23.1121 22.149 21.6951C22.4099 21.4361 22.6621 21.1674 22.9104 20.8967C25.4178 18.0862 27.6964 13.9145 28.0508 10.0701C28.1969 8.27298 27.8785 6.47685 27.0927 4.84098L27.0946 4.84Z" fill="url(#paint0_radial_14842_170298)"/>
<defs>
<radialGradient id="paint0_radial_14842_170298" cx="0" cy="0" r="1" gradientUnits="userSpaceOnUse" gradientTransform="translate(19.3022 21.4097) rotate(-125.194) scale(24.3695 36.9876)">
<stop stop-color="#00FFCE"/>
<stop offset="1" stop-color="#56BEFF"/>
</radialGradient>
</defs>
</svg>
